<svg width="18" height="20" viewBox="0 0 18 20" fill="none" xmlns="http://www.w3.org/2000/svg">
<path d="M4.02911 19.103H0.297321V6.4177H4.02911V19.103ZM2.16121 4.6873C0.967902 4.6873 0 3.64398 0 2.38435C8.54116e-09 1.77931 0.227698 1.19904 0.633002 0.771211C1.03831 0.34338 1.58802 0.103027 2.16121 0.103027C2.73439 0.103027 3.2841 0.34338 3.68941 0.771211C4.09471 1.19904 4.32241 1.77931 4.32241 2.38435C4.32241 3.64398 3.35411 4.6873 2.16121 4.6873ZM17.996 19.103H14.2722V12.9279C14.2722 11.4562 14.2441 9.56889 12.332 9.56889C10.3918 9.56889 10.0945 11.1678 10.0945 12.8219V19.103H6.3667V6.4177H9.9458V8.1481H9.99804C10.4963 7.15142 11.7133 6.09961 13.5289 6.09961C17.3057 6.09961 18 8.72489 18 12.1348V19.103H17.996Z" fill="#1A36A8"/>
</svg>
