<svg width="22" height="19" viewBox="0 0 22 19" fill="none" xmlns="http://www.w3.org/2000/svg">
<path d="M22 2.23383C21.1905 2.59522 20.3206 2.83946 19.4076 2.94934C20.3396 2.38696 21.0552 1.49642 21.3922 0.435348C20.5062 0.964661 19.5369 1.3376 18.5261 1.53804C17.7027 0.654934 16.5297 0.103027 15.2315 0.103027C12.7388 0.103027 10.7178 2.13762 10.7178 4.64702C10.7178 5.00322 10.7577 5.34999 10.8347 5.68266C7.08348 5.49309 3.7577 3.68406 1.53149 0.934824C1.14305 1.60595 0.920477 2.38662 0.920477 3.21928C0.920477 4.79584 1.71738 6.18663 2.92841 7.00156C2.21164 6.97896 1.51065 6.78406 0.883953 6.43313C0.883695 6.45216 0.883695 6.4712 0.883695 6.49032C0.883695 8.69197 2.43951 10.5286 4.50424 10.9461C3.83959 11.128 3.14242 11.1547 2.46598 11.0239C3.0403 12.8292 4.70723 14.143 6.68224 14.1797C5.13752 15.3984 3.19129 16.1249 1.07671 16.1249C0.712336 16.1249 0.353117 16.1034 0 16.0614C1.99745 17.3507 4.36992 18.103 6.91883 18.103C15.221 18.103 19.7608 11.1788 19.7608 5.17401C19.7608 4.97692 19.7565 4.78095 19.7478 4.58611C20.6314 3.943 21.3941 3.14644 22 2.23383Z" fill="#1A36A8"/>
</svg>
